<svg xmlns="http://www.w3.org/2000/svg" viewBox="0 0 32 32" width="32" height="32">
  <defs>
    <linearGradient id="grad1" x1="0%" y1="0%" x2="100%" y2="100%">
      <stop offset="0%" style="stop-color:#ff6b6b;stop-opacity:1" />
      <stop offset="25%" style="stop-color:#4ecdc4;stop-opacity:1" />
      <stop offset="50%" style="stop-color:#45b7d1;stop-opacity:1" />
      <stop offset="75%" style="stop-color:#96ceb4;stop-opacity:1" />
      <stop offset="100%" style="stop-color:#ffeaa7;stop-opacity:1" />
    </linearGradient>
  </defs>
  
  <!-- Dark background circle -->
  <circle cx="16" cy="16" r="15" fill="#0f0f23" stroke="url(#grad1)" stroke-width="2"/>
  
  <!-- Fractal pattern - 6-fold symmetry -->
  <g transform="translate(16,16)" stroke="url(#grad1)" stroke-width="1.5" fill="none">
    <!-- Center point -->
    <circle cx="0" cy="0" r="1" fill="url(#grad1)"/>
    
    <!-- 6 main branches -->
    <g>
      <line x1="0" y1="0" x2="0" y2="-10"/>
      <line x1="0" y1="-10" x2="-3" y2="-7"/>
      <line x1="0" y1="-10" x2="3" y2="-7"/>
    </g>
    
    <g transform="rotate(60)">
      <line x1="0" y1="0" x2="0" y2="-10"/>
      <line x1="0" y1="-10" x2="-3" y2="-7"/>
      <line x1="0" y1="-10" x2="3" y2="-7"/>
    </g>
    
    <g transform="rotate(120)">
      <line x1="0" y1="0" x2="0" y2="-10"/>
      <line x1="0" y1="-10" x2="-3" y2="-7"/>
      <line x1="0" y1="-10" x2="3" y2="-7"/>
    </g>
    
    <g transform="rotate(180)">
      <line x1="0" y1="0" x2="0" y2="-10"/>
      <line x1="0" y1="-10" x2="-3" y2="-7"/>
      <line x1="0" y1="-10" x2="3" y2="-7"/>
    </g>
    
    <g transform="rotate(240)">
      <line x1="0" y1="0" x2="0" y2="-10"/>
      <line x1="0" y1="-10" x2="-3" y2="-7"/>
      <line x1="0" y1="-10" x2="3" y2="-7"/>
    </g>
    
    <g transform="rotate(300)">
      <line x1="0" y1="0" x2="0" y2="-10"/>
      <line x1="0" y1="-10" x2="-3" y2="-7"/>
      <line x1="0" y1="-10" x2="3" y2="-7"/>
    </g>
    
    <!-- Inner ring -->
    <circle cx="0" cy="0" r="6" stroke="url(#grad1)" stroke-width="1" fill="none" opacity="0.6"/>
  </g>
</svg>